<svg
                    width="13"
                    height="13"
                    viewBox="0 0 13 13"
                    fill="none"
                    xmlns="http://www.w3.org/2000/svg"
                  >
                    <path
                      d="M7.45139 11.8413C7.27082 11.8413 7.1012 11.7286 7.05195 11.5545C6.99177 11.3497 7.12309 11.1397 7.34742 11.0834C9.56892 10.5354 11.1174 8.65086 11.1174 6.50002C11.1174 3.88828 8.84666 1.76304 6.05611 1.76304C3.68688 1.76304 2.13293 3.05867 1.4052 3.84219H3.01387C3.2382 3.84219 3.42424 4.0163 3.42424 4.22627C3.42424 4.43623 3.24368 4.61547 3.01387 4.61547H0.589919C0.56256 4.61547 0.513315 4.61035 0.475014 4.60011C0.425769 4.58474 0.381995 4.56426 0.343694 4.53865C0.294449 4.50793 0.256147 4.46696 0.228789 4.42087C0.201431 4.37478 0.179544 4.31845 0.174072 4.26212C0.174072 4.24675 0.174072 4.23651 0.174072 4.22115V1.89619C0.174072 1.68622 0.360109 1.51211 0.584447 1.51211C0.808785 1.51211 0.994822 1.68622 0.994822 1.89619V3.12012C1.8867 2.22393 3.5665 1 6.05611 1C9.30081 1 11.9382 3.46835 11.9382 6.50514C11.9382 9.00422 10.138 11.196 7.55535 11.831C7.52252 11.8362 7.48422 11.8413 7.45139 11.8413Z"
                      fill="black"
                      stroke="black"
                      strokeWidth="0.3"
                    />
                    <path
                      d="M5.66762 11.9999C5.65668 11.9999 5.64574 11.9948 5.64026 11.9948C5.04933 11.959 4.46933 11.8361 3.92216 11.6364C3.76348 11.58 3.65405 11.4315 3.65952 11.2728C3.65952 11.2267 3.67047 11.1806 3.68688 11.1396C3.76896 10.945 4.01518 10.8477 4.21763 10.9194C4.69367 11.0935 5.19159 11.1959 5.69498 11.2318C5.90838 11.242 6.078 11.4161 6.078 11.621L6.07253 11.6415C6.06158 11.8412 5.88102 11.9999 5.66762 11.9999ZM2.65274 10.8989C2.55972 10.8989 2.47217 10.8682 2.39557 10.817C1.93595 10.4688 1.53105 10.0642 1.20275 9.61353C1.1535 9.54696 1.12614 9.47527 1.12614 9.39845C1.12614 9.27042 1.1918 9.15264 1.30671 9.08094C1.48727 8.96316 1.74991 9.00925 1.87576 9.17312V9.17824C1.88123 9.18337 1.8867 9.19361 1.89217 9.19873C2.1767 9.58281 2.52142 9.92592 2.9099 10.2127C3.00292 10.2844 3.06311 10.3919 3.06311 10.5097C3.06311 10.5968 3.03575 10.6838 2.97556 10.7555C2.89349 10.8477 2.77858 10.8989 2.65274 10.8989ZM0.8252 8.39984C0.644635 8.39984 0.485957 8.2923 0.436712 8.13355C0.261619 7.60608 0.174072 7.05813 0.174072 6.50505V6.49993C0.179544 6.28997 0.360109 6.12097 0.584447 6.12097C0.808785 6.12097 0.994822 6.29509 0.994822 6.50505C0.994822 6.98643 1.07143 7.45757 1.21916 7.9031C1.2301 7.94407 1.23558 7.97992 1.23558 8.02088C1.23558 8.18476 1.12067 8.33327 0.945577 8.38448C0.907275 8.39472 0.868974 8.39984 0.8252 8.39984Z"
                      fill="black"
                      stroke="black"
                      strokeWidth="0.3"
                    />
</svg>