<svg width="29" height="22" viewBox="0 0 29 22" fill="none" xmlns="http://www.w3.org/2000/svg">
<path d="M20.5697 22H8.43021C3.97905 22 3.37207 20.0661 3.37207 17.9709V8.53754C3.37207 8.09699 3.83067 7.73169 4.3837 7.73169C4.93672 7.73169 5.39533 8.09699 5.39533 8.53754V17.9709C5.39533 19.8404 5.79998 20.3884 8.43021 20.3884H20.5697C23.2 20.3884 23.6046 19.8404 23.6046 17.9709V8.53754C23.6046 8.09699 24.0632 7.73169 24.6163 7.73169C25.1693 7.73169 25.6279 8.09699 25.6279 8.53754V17.9709C25.6279 20.0661 25.0209 22 20.5697 22Z" fill="#292D32"/>
<path d="M23.9419 8.8H5.05814C1.79395 8.8 0 7.568 0 5.32631V3.47368C0 1.232 1.79395 0 5.05814 0H23.9419C27.206 0 29 1.232 29 3.47368V5.32631C29 7.568 27.206 8.8 23.9419 8.8ZM5.05814 1.38947C2.92698 1.38947 2.02326 2.0101 2.02326 3.47368V5.32631C2.02326 6.78989 2.92698 7.41052 5.05814 7.41052H23.9419C26.073 7.41052 26.9767 6.78989 26.9767 5.32631V3.47368C26.9767 2.0101 26.073 1.38947 23.9419 1.38947H5.05814Z" fill="#292D32"/>
<path d="M17.1245 13.42H12.8755C12.3969 13.42 12 13.1208 12 12.76C12 12.3992 12.3969 12.1 12.8755 12.1H17.1245C17.6031 12.1 18 12.3992 18 12.76C18 13.1208 17.6031 13.42 17.1245 13.42Z" fill="#292D32"/>
</svg>
