<svg width="58" height="58" viewBox="0 0 58 58" fill="none" xmlns="http://www.w3.org/2000/svg">
<circle cx="29" cy="29" r="26.5" stroke="white" stroke-width="5"/>
<path d="M15.9055 28.88C15.9055 27.06 16.2275 25.282 16.8715 23.546C17.5435 21.782 18.5095 20.186 19.7695 18.758C21.0295 17.302 22.5695 16.154 24.3895 15.314C26.2095 14.446 28.2815 14.012 30.6055 14.012C33.3495 14.012 35.7155 14.614 37.7035 15.818C39.7195 17.022 41.2175 18.59 42.1975 20.522L37.7455 23.588C37.2415 22.468 36.5835 21.586 35.7715 20.942C34.9595 20.27 34.0915 19.808 33.1675 19.556C32.2435 19.276 31.3335 19.136 30.4375 19.136C28.9815 19.136 27.7075 19.43 26.6155 20.018C25.5515 20.606 24.6555 21.376 23.9275 22.328C23.1995 23.28 22.6535 24.344 22.2895 25.52C21.9535 26.696 21.7855 27.872 21.7855 29.048C21.7855 30.364 21.9955 31.638 22.4155 32.87C22.8355 34.074 23.4235 35.152 24.1795 36.104C24.9635 37.028 25.8875 37.77 26.9515 38.33C28.0435 38.862 29.2335 39.128 30.5215 39.128C31.4455 39.128 32.3835 38.974 33.3355 38.666C34.2875 38.358 35.1695 37.868 35.9815 37.196C36.7935 36.524 37.4235 35.656 37.8715 34.592L42.6175 37.322C42.0295 38.806 41.0635 40.066 39.7195 41.102C38.4035 42.138 36.9195 42.922 35.2675 43.454C33.6155 43.986 31.9775 44.252 30.3535 44.252C28.2255 44.252 26.2795 43.818 24.5155 42.95C22.7515 42.054 21.2255 40.878 19.9375 39.422C18.6775 37.938 17.6835 36.286 16.9555 34.466C16.2555 32.618 15.9055 30.756 15.9055 28.88Z" fill="white"/>
<line x1="30.5" y1="8.69971" x2="30.5" y2="46.3997" stroke="white" stroke-width="5"/>
</svg>
