<svg
                    width="34"
                    height="34"
                    viewBox="0 0 34 34"
                    fill="none"
                    xmlns="http://www.w3.org/2000/svg"
                  >
                    <path
                      d="M32.1592 16.1667C32.1649 18.3665 31.651 20.5365 30.6592 22.5C29.4832 24.8529 27.6754 26.832 25.4382 28.2155C23.201 29.599 20.6227 30.3323 17.9923 30.3333C15.7925 30.3391 13.6224 29.8251 11.6589 28.8333L2.15869 32L5.32541 22.5C4.33361 20.5365 3.81965 18.3665 3.82539 16.1667C3.8264 13.5363 4.55975 10.9581 5.94329 8.72095C7.32682 6.48379 9.3059 4.67599 11.6589 3.50005C13.6224 2.50827 15.7925 1.99431 17.9923 2.00005H18.8256C22.2996 2.1917 25.5808 3.65798 28.041 6.11814C30.5012 8.5783 31.9675 11.8595 32.1592 15.3334V16.1667Z"
                      stroke="#4A4A4A"
                      stroke-width="3"
                      stroke-linecap="round"
                      stroke-linejoin="round"
                    />
                  </svg>