<svg
                    width="52"
                    height="52"
                    viewBox="0 0 52 52"
                    fill="none"
                    xmlns="http://www.w3.org/2000/svg"
                  >
                    <circle cx="26" cy="26" r="26" fill="#59AFFF" />
                    <path
                      d="M15.1227 40.0204C15.1787 40.2779 15.2867 40.5085 15.4371 40.6914C15.5874 40.8744 15.7755 41.0042 15.9845 41.0692C16.1935 41.1342 16.4171 41.1325 16.6352 41.0642C16.8534 40.9958 17.0595 40.863 17.2351 40.6775C17.4107 40.492 17.5504 40.2595 17.6418 40.0008"
                      stroke="#FF8484"
                      stroke-width="2"
                      stroke-linecap="round"
                      stroke-linejoin="round"
                    />
                    <path
                      d="M20.1353 40.3392C20.0961 40.0766 20.0034 39.8353 19.8654 39.6369C19.7274 39.4385 19.5484 39.2891 19.3442 39.2019C19.1401 39.1147 18.9171 39.0924 18.6952 39.1371C18.4733 39.1818 18.2593 39.292 18.0722 39.458C17.8852 39.624 17.7308 39.8406 17.6229 40.0885"
                      stroke="#FF8484"
                      stroke-width="2"
                      stroke-linecap="round"
                      stroke-linejoin="round"
                    />
                    <path
                      d="M20.0172 39.988C20.0733 40.2456 20.1813 40.4761 20.3316 40.6591C20.4819 40.842 20.67 40.9718 20.879 41.0368C21.0881 41.1019 21.3116 41.1001 21.5298 41.0318C21.748 40.9634 21.954 40.8306 22.1296 40.6451C22.3052 40.4596 22.4449 40.2271 22.5364 39.9684"
                      stroke="#FF8484"
                      stroke-width="2"
                      stroke-linecap="round"
                      stroke-linejoin="round"
                    />
                    <path
                      d="M25.0308 40.3065C24.9916 40.0439 24.8989 39.8026 24.7609 39.6042C24.6229 39.4058 24.4439 39.2563 24.2397 39.1691C24.0356 39.0819 23.8126 39.0597 23.5907 39.1044C23.3688 39.1491 23.1548 39.2593 22.9677 39.4253C22.7807 39.5913 22.6263 39.8078 22.5184 40.0558"
                      stroke="#FF8484"
                      stroke-width="2"
                      stroke-linecap="round"
                      stroke-linejoin="round"
                    />
                    <path
                      d="M24.9122 39.9555C24.9683 40.2131 25.0763 40.4436 25.2266 40.6266C25.377 40.8095 25.565 40.9393 25.7741 41.0043C25.9831 41.0694 26.2066 41.0676 26.4248 40.9993C26.643 40.9309 26.849 40.7981 27.0246 40.6126C27.2002 40.4271 27.34 40.1946 27.4314 39.9359"
                      stroke="#FF8484"
                      stroke-width="2"
                      stroke-linecap="round"
                      stroke-linejoin="round"
                    />
                    <path
                      d="M29.9253 40.2741C29.8862 40.0115 29.7935 39.7703 29.6554 39.5718C29.5174 39.3734 29.3384 39.224 29.1342 39.1368C28.9301 39.0496 28.7072 39.0273 28.4853 39.072C28.2633 39.1167 28.0493 39.2269 27.8623 39.3929C27.6752 39.5589 27.5209 39.7755 27.413 40.0234"
                      stroke="#FF8484"
                      stroke-width="2"
                      stroke-linecap="round"
                      stroke-linejoin="round"
                    />
                    <path
                      d="M29.8068 39.9228C29.8628 40.1804 29.9708 40.4109 30.1212 40.5939C30.2715 40.7769 30.4596 40.9066 30.6686 40.9717C30.8776 41.0367 31.1012 41.0349 31.3193 40.9666C31.5375 40.8983 31.7436 40.7654 31.9192 40.5799C32.0948 40.3944 32.2345 40.1619 32.3259 39.9032"
                      stroke="#FF8484"
                      stroke-width="2"
                      stroke-linecap="round"
                      stroke-linejoin="round"
                    />
                    <path
                      d="M34.8203 40.2417C34.7812 39.9791 34.6885 39.7379 34.5505 39.5395C34.4125 39.341 34.2334 39.1916 34.0293 39.1044C33.8251 39.0172 33.6022 38.9949 33.3803 39.0396C33.1584 39.0843 32.9444 39.1945 32.7573 39.3605C32.5702 39.5265 32.4159 39.7431 32.308 39.991"
                      stroke="#FF8484"
                      stroke-width="2"
                      stroke-linecap="round"
                      stroke-linejoin="round"
                    />
                    <path
                      d="M34.7018 39.8904C34.7578 40.148 34.8658 40.3785 35.0162 40.5615C35.1665 40.7445 35.3546 40.8742 35.5636 40.9392C35.7726 41.0043 35.9962 41.0025 36.2143 40.9342C36.4325 40.8658 36.6386 40.733 36.8142 40.5475C36.9898 40.362 37.1295 40.1295 37.2209 39.8708"
                      stroke="#FF8484"
                      stroke-width="2"
                      stroke-linecap="round"
                      stroke-linejoin="round"
                    />
                    <path
                      d="M17.006 27.575C17.006 26.385 17.3326 25.3467 17.986 24.46C18.6626 23.55 19.596 22.85 20.786 22.36C21.976 21.87 23.341 21.625 24.881 21.625C25.651 21.625 26.4326 21.6833 27.226 21.8C28.0193 21.9167 28.7076 22.1033 29.291 22.36V21.38C29.291 20.2133 28.941 19.315 28.241 18.685C27.5643 18.055 26.5493 17.74 25.196 17.74C24.1926 17.74 23.236 17.915 22.326 18.265C21.416 18.615 20.4593 19.1283 19.456 19.805L17.951 16.725C19.1643 15.9317 20.401 15.3367 21.661 14.94C22.9443 14.5433 24.286 14.345 25.686 14.345C28.2993 14.345 30.3293 14.9983 31.776 16.305C33.246 17.6117 33.981 19.4783 33.981 21.905V27.75C33.981 28.24 34.0626 28.59 34.226 28.8C34.4126 29.01 34.7043 29.1383 35.101 29.185V33C34.681 33.07 34.296 33.1283 33.946 33.175C33.6193 33.2217 33.3393 33.245 33.106 33.245C32.1726 33.245 31.461 33.035 30.971 32.615C30.5043 32.195 30.2126 31.6817 30.096 31.075L29.991 30.13C29.1976 31.1567 28.206 31.95 27.016 32.51C25.826 33.07 24.6126 33.35 23.376 33.35C22.1626 33.35 21.066 33.105 20.086 32.615C19.1293 32.1017 18.371 31.4133 17.811 30.55C17.2743 29.6633 17.006 28.6717 17.006 27.575ZM28.416 28.52C28.6726 28.24 28.8826 27.96 29.046 27.68C29.2093 27.4 29.291 27.1433 29.291 26.91V25.055C28.731 24.8217 28.1243 24.6467 27.471 24.53C26.8176 24.39 26.1993 24.32 25.616 24.32C24.4026 24.32 23.3993 24.5883 22.606 25.125C21.836 25.6383 21.451 26.3267 21.451 27.19C21.451 27.6567 21.5793 28.1 21.836 28.52C22.0926 28.94 22.466 29.2783 22.956 29.535C23.446 29.7917 24.0293 29.92 24.706 29.92C25.406 29.92 26.0943 29.7917 26.771 29.535C27.4476 29.255 27.996 28.9167 28.416 28.52Z"
                      fill="white"
                    />
</svg>