<svg width="38" height="35" viewBox="0 0 38 35" fill="none" xmlns="http://www.w3.org/2000/svg">
<g clip-path="url(#clip0_1469_2375)">
<path d="M0.916748 4.375H9.66675C11.2138 4.375 12.6976 4.98958 13.7915 6.08354C14.8855 7.17751 15.5001 8.66124 15.5001 10.2083V30.625C15.5001 29.4647 15.0391 28.3519 14.2187 27.5314C13.3982 26.7109 12.2854 26.25 11.1251 26.25H0.916748V4.375Z" stroke="#5C5C5C" stroke-width="2.5" stroke-linecap="round" stroke-linejoin="round"/>
<path d="M30.0833 4.375H21.3333C19.7862 4.375 18.3025 4.98958 17.2085 6.08354C16.1146 7.17751 15.5 8.66124 15.5 10.2083V30.625C15.5 29.4647 15.9609 28.3519 16.7814 27.5314C17.6019 26.7109 18.7147 26.25 19.875 26.25H30.0833V4.375Z" stroke="#5C5C5C" stroke-width="2.5" stroke-linecap="round" stroke-linejoin="round"/>
</g>
<defs>
<clipPath id="clip0_1469_2375">
<rect width="36.4483" height="35" fill="white" transform="translate(0.56543)"/>
</clipPath>
</defs>
</svg>
