<svg width="38" height="27" viewBox="0 0 38 27" fill="none" xmlns="http://www.w3.org/2000/svg">
<path d="M2.00093 4.96704C1.88912 5.66788 1.85833 6.42539 1.85833 7.21625V19.7663C1.85833 20.5571 1.88912 21.3146 2.00093 22.0155C1.87827 21.3999 1.81543 20.6607 1.81543 19.7663V7.21625C1.81543 6.32176 1.87827 5.58265 2.00093 4.96704ZM35.7637 19.7663C35.7637 20.6608 35.7009 21.3999 35.5782 22.0155C35.69 21.3146 35.7208 20.5571 35.7208 19.7663V12.2363C35.7208 11.4454 35.69 10.6879 35.5782 9.987C35.7009 10.6026 35.7637 11.3417 35.7637 12.2363V19.7663Z" stroke="#5C5C5C" stroke-width="2.5"/>
<path d="M32.352 6.1294C32.3446 6.1294 32.3374 6.12922 32.3305 6.1289V4.70625C32.3305 4.30945 32.2927 3.92187 32.2072 3.55302C32.3162 3.88838 32.3734 4.27038 32.3734 4.70625V6.1289C32.3665 6.12922 32.3594 6.1294 32.352 6.1294Z" stroke="#5C5C5C" stroke-width="2.5"/>
</svg>
