<svg width="71" height="70" viewBox="0 0 71 70" fill="none" xmlns="http://www.w3.org/2000/svg">
<path d="M42.9282 29.1668C40.5122 29.1668 38.562 27.2127 38.562 24.7918V10.2085C38.562 7.78766 40.5122 5.8335 42.9282 5.8335C45.3441 5.8335 47.2944 7.78766 47.2944 10.2085V24.7918C47.2944 27.2127 45.3441 29.1668 42.9282 29.1668Z" stroke="white" stroke-width="3" stroke-linecap="round" stroke-linejoin="round"/>
<path d="M60.3928 29.1665H56.0266V24.7915C56.0266 22.3707 57.9768 20.4165 60.3928 20.4165C62.8087 20.4165 64.759 22.3707 64.759 24.7915C64.759 27.2123 62.8087 29.1665 60.3928 29.1665Z" stroke="white" stroke-width="3" stroke-linecap="round" stroke-linejoin="round"/>
<path d="M28.3742 40.8335C30.7902 40.8335 32.7404 42.7877 32.7404 45.2085V59.7918C32.7404 62.2127 30.7902 64.1668 28.3742 64.1668C25.9583 64.1668 24.0081 62.2127 24.0081 59.7918V45.2085C24.0081 42.7877 25.9583 40.8335 28.3742 40.8335Z" stroke="white" stroke-width="3" stroke-linecap="round" stroke-linejoin="round"/>
<path d="M10.9094 40.8335H15.2756V45.2085C15.2756 47.6293 13.3253 49.5835 10.9094 49.5835C8.49344 49.5835 6.54321 47.6293 6.54321 45.2085C6.54321 42.7877 8.49344 40.8335 10.9094 40.8335Z" stroke="white" stroke-width="3" stroke-linecap="round" stroke-linejoin="round"/>
<path d="M41.4727 42.2915C41.4727 39.8707 43.4229 37.9165 45.8388 37.9165H60.3928C62.8087 37.9165 64.7589 39.8707 64.7589 42.2915C64.7589 44.7123 62.8087 46.6665 60.3928 46.6665H45.8388C43.4229 46.6665 41.4727 44.7123 41.4727 42.2915Z" stroke="white" stroke-width="3" stroke-linecap="round" stroke-linejoin="round"/>
<path d="M45.8388 55.4165H41.4727V59.7915C41.4727 62.2123 43.4229 64.1665 45.8388 64.1665C48.2548 64.1665 50.205 62.2123 50.205 59.7915C50.205 57.3707 48.2548 55.4165 45.8388 55.4165Z" stroke="white" stroke-width="3" stroke-linecap="round" stroke-linejoin="round"/>
<path d="M29.8295 27.7085C29.8295 25.2877 27.8793 23.3335 25.4633 23.3335H10.9094C8.49344 23.3335 6.54321 25.2877 6.54321 27.7085C6.54321 30.1293 8.49344 32.0835 10.9094 32.0835H25.4633C27.8793 32.0835 29.8295 30.1293 29.8295 27.7085Z" stroke="white" stroke-width="3" stroke-linecap="round" stroke-linejoin="round"/>
<path d="M25.4633 14.5835H29.8295V10.2085C29.8295 7.78766 27.8793 5.8335 25.4633 5.8335C23.0474 5.8335 21.0972 7.78766 21.0972 10.2085C21.0972 12.6293 23.0474 14.5835 25.4633 14.5835Z" stroke="white" stroke-width="3" stroke-linecap="round" stroke-linejoin="round"/>
</svg>
