<svg
                    width="52"
                    height="52"
                    viewBox="0 0 52 52"
                    fill="none"
                    xmlns="http://www.w3.org/2000/svg"
                  >
                    <circle cx="26" cy="26" r="26" fill="#59AFFF" />
                    <path
                      d="M34.3132 25.6L37.8132 32.28L41.3732 25.6H44.3532L39.1932 34.84V39.8H36.4532V34.8L31.3132 25.6H34.3132Z"
                      fill="white"
                    />
                    <line
                      x1="33.5731"
                      y1="14.1367"
                      x2="19.8676"
                      y2="37.3068"
                      stroke="white"
                      stroke-width="2"
                    />
                    <path
                      d="M13.5078 28.7827V26.5027H14.6278C14.9744 26.5027 15.2344 26.4294 15.4078 26.2827C15.5811 26.1361 15.7344 25.9027 15.8678 25.5827L16.1878 24.8827L10.5478 14.4827H13.5878L17.4078 22.0827L20.7278 14.4827H23.6278L17.9678 26.8827C17.6211 27.5894 17.2278 28.0827 16.7878 28.3627C16.3478 28.6427 15.7611 28.7827 15.0278 28.7827H13.5078Z"
                      fill="white"
                    />
</svg>