<svg width="40" height="39" viewBox="0 0 40 39" fill="none" xmlns="http://www.w3.org/2000/svg">
<path d="M19.7898 24.2727C22.5348 24.2727 24.76 22.1359 24.76 19.5C24.76 16.8641 22.5348 14.7273 19.7898 14.7273C17.0448 14.7273 14.8196 16.8641 14.8196 19.5C14.8196 22.1359 17.0448 24.2727 19.7898 24.2727Z" stroke="#5C5C5C" stroke-width="2.5" stroke-linecap="round" stroke-linejoin="round"/>
<path d="M32.0494 24.2727C31.8289 24.7526 31.7631 25.2849 31.8606 25.8009C31.958 26.317 32.2142 26.7932 32.5962 27.1682L32.6956 27.2636C33.0036 27.5591 33.248 27.9101 33.4148 28.2963C33.5815 28.6826 33.6674 29.0966 33.6674 29.5148C33.6674 29.9329 33.5815 30.347 33.4148 30.7332C33.248 31.1195 33.0036 31.4704 32.6956 31.7659C32.3878 32.0617 32.0224 32.2964 31.6201 32.4566C31.2179 32.6167 30.7867 32.6991 30.3513 32.6991C29.9158 32.6991 29.4847 32.6167 29.0824 32.4566C28.6802 32.2964 28.3147 32.0617 28.007 31.7659L27.9076 31.6705C27.5171 31.3037 27.0212 31.0577 26.4838 30.9641C25.9463 30.8705 25.392 30.9337 24.8923 31.1455C24.4023 31.3471 23.9844 31.682 23.69 32.1088C23.3957 32.5356 23.2377 33.0358 23.2356 33.5477V33.8182C23.2356 34.6621 22.8865 35.4714 22.2651 36.0681C21.6437 36.6648 20.8009 37 19.9221 37C19.0433 37 18.2005 36.6648 17.5791 36.0681C16.9577 35.4714 16.6086 34.6621 16.6086 33.8182V33.675C16.5958 33.1484 16.4183 32.6377 16.0992 32.2093C15.7801 31.7809 15.3342 31.4545 14.8193 31.2727C14.3196 31.061 13.7653 30.9978 13.2279 31.0914C12.6905 31.1849 12.1945 31.431 11.8041 31.7977L11.7047 31.8932C11.3969 32.189 11.0315 32.4237 10.6293 32.5838C10.227 32.7439 9.79583 32.8264 9.36039 32.8264C8.92495 32.8264 8.49378 32.7439 8.09153 32.5838C7.68928 32.4237 7.32384 32.189 7.0161 31.8932C6.70803 31.5977 6.46363 31.2468 6.29688 30.8605C6.13013 30.4742 6.0443 30.0602 6.0443 29.642C6.0443 29.2239 6.13013 28.8099 6.29688 28.4236C6.46363 28.0373 6.70803 27.6864 7.0161 27.3909L7.11551 27.2955C7.49745 26.9205 7.75366 26.4443 7.85111 25.9282C7.94856 25.4121 7.88277 24.8798 7.66223 24.4C7.45222 23.9295 7.10351 23.5282 6.65902 23.2455C6.21453 22.9628 5.69367 22.8111 5.16056 22.8091H4.87891C4.00012 22.8091 3.15732 22.4739 2.53593 21.8772C1.91453 21.2805 1.56543 20.4711 1.56543 19.6273C1.56543 18.7834 1.91453 17.9741 2.53593 17.3774C3.15732 16.7807 4.00012 16.4455 4.87891 16.4455H5.02802C5.57639 16.4331 6.10822 16.2627 6.55437 15.9563C7.00052 15.6498 7.34035 15.2216 7.52969 14.7273C7.75023 14.2474 7.81602 13.7151 7.71857 13.1991C7.62112 12.683 7.36491 12.2068 6.98297 11.8318L6.88356 11.7364C6.57549 11.4409 6.33109 11.0899 6.16434 10.7037C5.99759 10.3174 5.91177 9.90337 5.91177 9.48523C5.91177 9.06709 5.99759 8.65305 6.16434 8.26678C6.33109 7.88051 6.57549 7.5296 6.88356 7.23409C7.1913 6.93826 7.55674 6.70357 7.95899 6.54345C8.36124 6.38332 8.79241 6.30091 9.22785 6.30091C9.66329 6.30091 10.0945 6.38332 10.4967 6.54345C10.899 6.70357 11.2644 6.93826 11.5721 7.23409L11.6715 7.32955C12.062 7.69631 12.5579 7.94234 13.0954 8.03592C13.6328 8.12949 14.1871 8.06632 14.6868 7.85455H14.8193C15.3094 7.65288 15.7273 7.31802 16.0216 6.89119C16.316 6.46437 16.474 5.96421 16.4761 5.45227V5.18182C16.4761 4.33795 16.8252 3.52864 17.4466 2.93193C18.068 2.33523 18.9108 2 19.7896 2C20.6684 2 21.5112 2.33523 22.1326 2.93193C22.7539 3.52864 23.103 4.33795 23.103 5.18182V5.325C23.1052 5.83693 23.2631 6.3371 23.5575 6.76392C23.8519 7.19075 24.2698 7.5256 24.7598 7.72727C25.2595 7.93905 25.8138 8.00222 26.3512 7.90864C26.8887 7.81507 27.3846 7.56904 27.7751 7.20227L27.8745 7.10682C28.1822 6.81098 28.5476 6.5763 28.9499 6.41617C29.3521 6.25605 29.7833 6.17363 30.2187 6.17363C30.6542 6.17363 31.0854 6.25605 31.4876 6.41617C31.8899 6.5763 32.2553 6.81098 32.563 7.10682C32.8711 7.40232 33.1155 7.75324 33.2823 8.13951C33.449 8.52577 33.5348 8.93981 33.5348 9.35795C33.5348 9.77609 33.449 10.1901 33.2823 10.5764C33.1155 10.9627 32.8711 11.3136 32.563 11.6091L32.4636 11.7045C32.0817 12.0795 31.8255 12.5557 31.728 13.0718C31.6306 13.5879 31.6964 14.1202 31.9169 14.6V14.7273C32.1269 15.1978 32.4756 15.5991 32.9201 15.8818C33.3646 16.1644 33.8855 16.3161 34.4186 16.3182H34.7002C35.579 16.3182 36.4218 16.6534 37.0432 17.2501C37.6646 17.8468 38.0137 18.6561 38.0137 19.5C38.0137 20.3439 37.6646 21.1532 37.0432 21.7499C36.4218 22.3466 35.579 22.6818 34.7002 22.6818H34.5511C34.018 22.6839 33.4971 22.8356 33.0527 23.1182C32.6082 23.4009 32.2595 23.8022 32.0494 24.2727Z" stroke="#5C5C5C" stroke-width="2.5" stroke-linecap="round" stroke-linejoin="round"/>
</svg>
