    <svg
      width="70"
      height="70"
      viewBox="0 0 70 70"
      fill="none"
      xmlns="http://www.w3.org/2000/svg"
    >
      <path
        d="M67 32.0743V35.0183C66.9961 41.9189 64.7616 48.6333 60.6299 54.1601C56.4981 59.687 50.6905 63.7302 44.0731 65.6868C37.4558 67.6433 30.3832 67.4084 23.9103 65.017C17.4374 62.6256 11.9109 58.2058 8.15507 52.4169C4.39925 46.628 2.61533 39.7801 3.06937 32.8945C3.5234 26.0089 6.19106 19.4546 10.6745 14.2089C15.1579 8.96334 21.2169 5.30754 27.9478 3.78678C34.6787 2.26603 41.7208 2.96179 48.024 5.77032"
        stroke="#196EED"
        stroke-width="5"
        stroke-linecap="round"
        stroke-linejoin="round"
      />
      <mask id="path-2-inside-1_1729_1948" fill="white">
        <path d="M61.3314 16.3672L37.452 40.5043L32.8057 34.2287" />
      </mask>
      <path
        d="M90.478 45.2025C106.403 29.1053 106.264 3.14591 90.1667 -12.7794C74.0695 -28.7047 48.1101 -28.5654 32.1848 -12.4681L90.478 45.2025ZM37.452 40.5043L4.50037 64.9008C11.6219 74.5197 22.5909 80.5467 34.5288 81.4C46.4666 82.2533 58.1813 77.8478 66.5986 69.3397L37.452 40.5043ZM65.7573 9.83214C52.2835 -8.36654 26.6078 -12.1968 8.40914 1.27704C-9.78954 14.7509 -13.6198 40.4265 -0.145962 58.6252L65.7573 9.83214ZM70.4036 16.1078L65.7573 9.83214L-0.145962 58.6252L4.50037 64.9008L70.4036 16.1078ZM32.1848 -12.4681L8.30541 11.669L66.5986 69.3397L90.478 45.2025L32.1848 -12.4681Z"
        fill="#196EED"
        mask="url(#path-2-inside-1_1729_1948)"
      />
      <line
        x1="33.9028"
        y1="14.5615"
        x2="37.1943"
        y2="14.5615"
        stroke="#196EED"
        stroke-width="8"
      />
      <line
        x1="33.9028"
        y1="56.2529"
        x2="37.1943"
        y2="56.2529"
        stroke="#196EED"
        stroke-width="8"
      />
      <line
        x1="20.8746"
        y1="51.1496"
        x2="19.323"
        y2="49.598"
        stroke="#196EED"
        stroke-width="4"
      />
      <line
        x1="19.3228"
        y1="19.7957"
        x2="20.8744"
        y2="18.2442"
        stroke="#196EED"
        stroke-width="4"
      />
      <line
        x1="14.543"
        y1="36.1152"
        x2="14.543"
        y2="32.8238"
        stroke="#196EED"
        stroke-width="8"
      />
      <line
        x1="56.2344"
        y1="36.1152"
        x2="56.2344"
        y2="32.8238"
        stroke="#196EED"
        stroke-width="8"
      />
    </svg>