<svg width="38" height="36" viewBox="0 0 38 36" fill="none" xmlns="http://www.w3.org/2000/svg">
<path d="M28.7503 33.5819C28.2243 33.5819 27.6983 33.4516 27.2232 33.1746L20.4189 29.2965C19.7062 29.2802 18.9936 29.2314 18.3148 29.1337C17.8567 29.0685 17.4664 28.775 17.2967 28.3514C17.1271 27.9278 17.2119 27.4715 17.5173 27.1294C18.6372 25.8747 19.2142 24.3757 19.2142 22.7789C19.2142 18.8357 15.5999 15.6258 11.1542 15.6258C9.49134 15.6258 7.89631 16.0659 6.55582 16.9132C6.18252 17.1413 5.72438 17.1739 5.31714 16.9947C4.92687 16.8154 4.63843 16.4568 4.58753 16.0332C4.53662 15.5769 4.50269 15.1209 4.50269 14.6483C4.50269 6.56645 11.799 0 20.7583 0C29.7175 0 37.0138 6.56645 37.0138 14.6483C37.0138 19.0803 34.8758 23.1536 31.1089 25.9399L31.6858 30.372C31.8215 31.48 31.3125 32.5228 30.3453 33.1257C29.8702 33.419 29.3102 33.5819 28.7503 33.5819ZM20.7413 26.8361C20.9788 26.8198 21.2164 26.8851 21.42 27.0155L28.5297 31.0727C28.7164 31.1867 28.8691 31.1378 28.9709 31.0727C29.0557 31.0238 29.1915 30.8934 29.1575 30.6653L28.4958 25.5163C28.4449 25.06 28.6485 24.6202 29.0218 24.3595C32.4833 22.0295 34.4686 18.4773 34.4686 14.6156C34.4686 7.88624 28.3261 2.41148 20.7583 2.41148C13.4789 2.41148 7.50604 7.49526 7.06487 13.8825C8.33748 13.41 9.71193 13.1492 11.1373 13.1492C16.9913 13.1492 21.7424 17.4507 21.7424 22.7463C21.7594 24.1801 21.4031 25.5651 20.7413 26.8361Z" fill="#5C5C5C"/>
<path d="M6.19888 35.0159C5.7577 35.0159 5.3335 34.9019 4.94323 34.6575C4.17966 34.1849 3.77244 33.3702 3.87425 32.5067L4.21359 29.9974C1.92289 28.205 0.56543 25.5491 0.56543 22.7629C0.56543 19.5855 2.2962 16.62 5.19777 14.844C6.94549 13.7523 9.0156 13.1658 11.1706 13.1658C17.0246 13.1658 21.7757 17.4673 21.7757 22.7629C21.7757 24.9137 20.9613 27.0319 19.4681 28.7102C17.5507 30.9424 14.683 32.246 11.5269 32.3437L7.38665 34.7063C7.01335 34.9182 6.60611 35.0159 6.19888 35.0159ZM11.1536 15.6098C9.49071 15.6098 7.89568 16.0497 6.55519 16.897C4.38326 18.2331 3.09369 20.4165 3.09369 22.7629C3.09369 25.0277 4.24755 27.0971 6.28373 28.4332C6.674 28.6939 6.8776 29.1338 6.8267 29.59L6.4534 32.3763L10.5088 30.0626C10.7124 29.9485 10.933 29.8833 11.1536 29.8833C13.6479 29.8833 16.0066 28.8568 17.4998 27.1133C18.6197 25.8424 19.2135 24.3434 19.2135 22.7466C19.2135 18.8197 15.5993 15.6098 11.1536 15.6098Z" fill="#5C5C5C"/>
</svg>
