<svg
                    width="18"
                    height="18"
                    viewBox="0 0 18 18"
                    fill="none"
                    xmlns="http://www.w3.org/2000/svg"
                  >
                    <path
                      d="M11.4747 14.8308C11.385 14.8308 11.2871 14.8064 11.2055 14.7656C10.9036 14.6106 10.7813 14.2435 10.9281 13.9416L12.6739 10.4582C12.78 10.2542 12.9921 10.1237 13.2205 10.1237C13.4489 10.1237 13.661 10.2542 13.7671 10.4664L15.5129 13.9498C15.6679 14.2516 15.5455 14.6187 15.2355 14.7737C14.9337 14.9287 14.5665 14.8064 14.4115 14.4964L13.2205 12.1061L12.0294 14.4964C11.9152 14.7085 11.695 14.8308 11.4747 14.8308Z"
                      fill="black"
                    />
                    <path
                      d="M14.649 14.211H11.7775C11.443 14.211 11.1656 13.9337 11.1656 13.5992C11.1656 13.2647 11.443 12.9873 11.7775 12.9873H14.649C14.9835 12.9873 15.2608 13.2647 15.2608 13.5992C15.2608 13.9337 14.9916 14.211 14.649 14.211Z"
                      fill="black"
                    />
                    <path
                      d="M13.213 17.5473C10.5943 17.5473 8.45691 15.4181 8.45691 12.7913C8.45691 10.1644 10.5861 8.03522 13.213 8.03522C15.8317 8.03522 17.969 10.1644 17.969 12.7913C17.969 15.4181 15.8398 17.5473 13.213 17.5473ZM13.213 9.26706C11.2632 9.26706 9.6806 10.8497 9.6806 12.7994C9.6806 14.7492 11.2632 16.3318 13.213 16.3318C15.1546 16.3318 16.7454 14.7492 16.7454 12.7994C16.7454 10.8497 15.1627 9.26706 13.213 9.26706Z"
                      fill="black"
                    />
                    <path
                      d="M3.3747 9.34903C2.46917 9.34903 1.75127 9.09605 1.24548 8.60658C0.707057 8.08447 0.429688 7.29315 0.429688 6.27345V3.07555C0.429688 1.09318 1.52285 0 3.50522 0H6.70312C7.72286 0 8.50603 0.269211 9.03629 0.815792C9.55024 1.34606 9.80313 2.11293 9.77866 3.09188V6.27345C9.80313 7.26868 9.55024 8.05192 9.01997 8.58218C8.48971 9.11245 7.70655 9.35711 6.69496 9.34079H3.51338C3.45627 9.34895 3.41549 9.34903 3.3747 9.34903ZM3.50522 1.23185C2.1918 1.23185 1.65338 1.77029 1.65338 3.08372V6.28161C1.65338 6.95872 1.80021 7.44815 2.09389 7.73368C2.37942 8.01105 2.83628 8.1335 3.48076 8.12534H6.69496C7.38022 8.14166 7.85339 8.00297 8.13892 7.71745C8.42445 7.43192 8.55497 6.95057 8.53866 6.28978V3.07555C8.55497 2.42292 8.42445 1.95789 8.14708 1.67236C7.86155 1.37868 7.37207 1.23185 6.69496 1.23185H3.50522Z"
                      fill="black"
                    />
                    <path
                      d="M6.75159 4.37212H3.43948C3.10501 4.37212 2.82764 4.09476 2.82764 3.76028C2.82764 3.42581 3.10501 3.14844 3.43948 3.14844H6.75159C7.08607 3.14844 7.36344 3.42581 7.36344 3.76028C7.36344 4.09476 7.09423 4.37212 6.75159 4.37212Z"
                      fill="black"
                    />
                    <path
                      d="M5.10452 4.37238C4.77004 4.37238 4.49268 4.09501 4.49268 3.76054V3.20581C4.49268 2.87133 4.77004 2.59396 5.10452 2.59396C5.43899 2.59396 5.71636 2.87133 5.71636 3.20581V3.76054C5.71636 4.09501 5.43899 4.37238 5.10452 4.37238Z"
                      fill="black"
                    />
                    <path
                      d="M3.43948 6.95021C3.10501 6.95021 2.82764 6.67284 2.82764 6.33837C2.82764 6.00389 3.10501 5.72652 3.43948 5.72652C4.47554 5.72652 5.31581 4.84548 5.31581 3.75232C5.31581 3.41784 5.59318 3.14047 5.92765 3.14047C6.26213 3.14047 6.5395 3.41784 6.5395 3.75232C6.5395 5.51443 5.15264 6.95021 3.43948 6.95021Z"
                      fill="black"
                    />
                    <path
                      d="M6.76055 6.9504C6.00187 6.9504 5.27582 6.56699 4.76187 5.88988C4.55793 5.62067 4.61503 5.23721 4.88424 5.03326C5.15345 4.82931 5.53687 4.88643 5.74082 5.15565C6.01818 5.53091 6.38529 5.73488 6.76055 5.73488C7.09503 5.73488 7.3724 6.01225 7.3724 6.34673C7.3724 6.6812 7.09503 6.9504 6.76055 6.9504Z"
                      fill="black"
                    />
                    <path
                      d="M6.75207 17.5475C3.26864 17.5475 0.429688 14.7085 0.429688 11.2251C0.429688 10.8906 0.707057 10.6133 1.04153 10.6133C1.37601 10.6133 1.65337 10.8906 1.65337 11.2251C1.65337 13.6398 3.33391 15.663 5.59365 16.1933L5.37338 15.8262C5.20207 15.5325 5.29181 15.1572 5.5855 14.9859C5.87103 14.8146 6.25445 14.9043 6.42576 15.198L7.28233 16.6256C7.39654 16.8133 7.39655 17.0498 7.29049 17.2375C7.17628 17.4251 6.97234 17.5475 6.75207 17.5475Z"
                      fill="black"
                    />
                    <path
                      d="M17.3577 6.94219C17.0232 6.94219 16.7458 6.66482 16.7458 6.33035C16.7458 3.91561 15.0653 1.89242 12.8055 1.36215L13.0258 1.72928C13.1971 2.02296 13.1074 2.39824 12.8137 2.56956C12.5282 2.74088 12.1448 2.65114 11.9734 2.35745L11.1169 0.92981C11.0026 0.742178 11.0026 0.505598 11.1087 0.317966C11.2148 0.122176 11.4187 0.00796509 11.639 0.00796509C15.1224 0.00796509 17.9613 2.84692 17.9613 6.33035C17.9695 6.66482 17.6921 6.94219 17.3577 6.94219Z"
                      fill="black"
                    />
                  </svg>