<svg width="18" height="20" viewBox="0 0 18 20" fill="none" xmlns="http://www.w3.org/2000/svg">
<path d="M1.5813 5.20947H3.20921H16.2325" stroke="white" stroke-width="2" stroke-linecap="round" stroke-linejoin="round"/>
<path d="M14.6046 5.20943V16.6048C14.6046 17.0365 14.4331 17.4506 14.1278 17.7559C13.8225 18.0612 13.4084 18.2327 12.9767 18.2327H4.83714C4.40539 18.2327 3.99132 18.0612 3.68603 17.7559C3.38074 17.4506 3.20923 17.0365 3.20923 16.6048V5.20943M5.65109 5.20943V3.58152C5.65109 3.14977 5.8226 2.73571 6.12789 2.43042C6.43318 2.12512 6.84725 1.95361 7.279 1.95361H10.5348C10.9666 1.95361 11.3806 2.12512 11.6859 2.43042C11.9912 2.73571 12.1627 3.14977 12.1627 3.58152V5.20943" stroke="white" stroke-width="2" stroke-linecap="round" stroke-linejoin="round"/>
</svg>
