<svg width="40" height="32" viewBox="0 0 40 32" fill="none" xmlns="http://www.w3.org/2000/svg">
<path d="M28.0733 30.6364V27.4545C28.0733 25.7668 27.3751 24.1482 26.1323 22.9548C24.8895 21.7614 23.2039 21.0909 21.4463 21.0909H8.19239C6.43481 21.0909 4.74922 21.7614 3.50642 22.9548C2.26363 24.1482 1.56543 25.7668 1.56543 27.4545V30.6364" stroke="#5C5C5C" stroke-width="2.5" stroke-linecap="round" stroke-linejoin="round"/>
<path d="M14.8193 14.7273C18.4793 14.7273 21.4463 11.8782 21.4463 8.36364C21.4463 4.8491 18.4793 2 14.8193 2C11.1594 2 8.19238 4.8491 8.19238 8.36364C8.19238 11.8782 11.1594 14.7273 14.8193 14.7273Z" stroke="#5C5C5C" stroke-width="2.5" stroke-linecap="round" stroke-linejoin="round"/>
<path d="M38.0137 30.6364V27.4545C38.0126 26.0446 37.5239 24.6749 36.6243 23.5605C35.7247 22.4461 34.4652 21.6502 33.0435 21.2977" stroke="#5C5C5C" stroke-width="2.5" stroke-linecap="round" stroke-linejoin="round"/>
<path d="M26.4165 2.20679C27.842 2.55727 29.1055 3.35336 30.0077 4.46955C30.91 5.58575 31.3997 6.95856 31.3997 8.37156C31.3997 9.78456 30.91 11.1574 30.0077 12.2736C29.1055 13.3898 27.842 14.1859 26.4165 14.5363" stroke="#5C5C5C" stroke-width="2.5" stroke-linecap="round" stroke-linejoin="round"/>
</svg>
